<?xml version="1.0" encoding="UTF-8"?>
<svg id="_图层_1" data-name="图层 1" xmlns="http://www.w3.org/2000/svg" viewBox="0 0 3280.82 3281.2">
  <path d="M1653.64.12l995.59,4.37,43.84,8.79c162.42,27.05,290.11,114.5,385.98,210.25,87.74,87.63,167.7,216.56,192.96,367.99l8.8,52.58v1997.55l-8.8,52.58c-12.45,74.71-29.99,121.47-65.82,183.99-38.13,66.65-64.97,121.83-114.03,170.83l-65.82,65.74c-62.36,62.28-157.32,100.55-245.6,135.78-21.92,8.73-61.39,17.53-87.74,21.89l-52.64,8.73H631.58l-43.84-8.73c-74.8-12.43-121.62-29.96-184.22-65.74-66.73-38.08-121.98-64.89-171.04-113.89l-65.82-65.74c-62.36-62.28-100.67-157.13-135.95-245.3-8.8-21.89-17.55-61.31-21.92-87.63l-8.8-52.58V644.04l8.8-52.58c17.06-102.43,59.69-182.6,105.28-258.46C204.56,182.42,355.87,70.04,548.28,21.95c17.55-4.37,52.64-8.79,74.56-13.16C657.94,4.43,820.23,0,1653.52,0l.12.12ZM772.09,368.05c-165.46,0-222.29,24.86-302.62,105.16-41.47,41.42-82.64,101.52-96.48,170.83-8.8,35.05-8.8,56.94-8.8,998.74s0,963.75,8.8,998.74c24.47,122.26,107.96,196.3,206.14,245.3,52.76,26.38,81.12,30.69,171.04,30.69,39.47,0,70.19-4.37,70.19-4.37-28.11-56.22-64.3-132.87-78.93-205.89-4.37-21.89-8.8-70.1-13.18-105.16-4.37-39.42-4.37-438.09-4.37-1055.75,0-744.77-13.97-983.34,17.55-1077.64,14.27-42.81,73.47-78.29,109.66-96.36,13.18-4.37,4.37-4.37-78.93-4.37l-.06.06ZM1276.47,1800.52c0-87.57,90.77-157.67,179.85-157.67,29.51,0,71.46,11.58,92.11,21.89,8.8,4.37,157.87,148.94,328.97,319.78l311.42,315.41v-814.81l-4.37-814.81c-8.21-29.37-16.98-58.59-26.29-87.63-4.37-13.16-21.92-30.69-30.72-48.21-33.09-66.04-85.92-92.24-144.75-131.42-23.44-15.59-56.71-22.92-87.74-30.69l-469.29-4.37c-460.54,0-469.29,0-451.74,8.79,13.18,4.37,30.72,13.16,39.47,21.89,602.32,601.59,956.12,937.43,973.67,981.28,4.37,13.16,17.55,39.42,17.55,52.58v52.58c0,90.66-88.71,157.67-179.85,157.67-29.51,0-71.46-11.58-92.11-21.89-8.8-4.37-157.87-148.94-328.97-319.78l-311.42-315.41v814.81c0,749.07,0,814.81,8.8,841.07,43.47,130.26,127.2,223.41,258.78,267.2,26.29,8.79,65.82,8.79,500.01,8.79,456.11,0,464.91,0,447.37-8.79-13.18-4.37-30.72-13.16-39.47-21.89-602.32-601.59-956.12-937.43-973.67-981.28l-17.55-52.58c-4.37-17.25-4.37-35.32,0-52.58l-.06.06ZM2530.83,368.05c-39.47,0-70.19,4.37-70.19,4.37,28.42,56.82,66.43,135.24,78.93,210.25,27.75,166.29,17.55,465.87,17.55,1156.48,0,749.32,14.09,982.92-17.55,1077.64-14.27,42.81-73.47,78.29-109.66,96.36-13.18,4.37-4.37,4.37,78.93,4.37,164,0,223.38-26.02,302.62-105.16,41.47-41.42,82.64-101.52,96.48-170.83,8.8-35.05,8.8-56.94,8.8-998.81s0-963.75-8.8-998.81c-20.16-100.79-83.43-166.53-153.49-219.05-17.55-13.16-48.27-26.26-65.82-30.69-17.55-4.43-39.47-17.53-57.01-21.89-17.55-4.37-57.01-4.37-100.85-4.37l.06.12Z"/>
</svg>